<svg width="24" height="24" viewBox="0 0 24 24" fill="none" xmlns="http://www.w3.org/2000/svg">
  <path d="M8.25007 22.6125V17.4375L4.38757 20.2875C5.47507 21.3 6.78757 22.0875 8.25007 22.6125Z" fill="#2A5F9E"/>
  <path d="M15.75 22.6126C17.2125 22.0876 18.525 21.3001 19.6125 20.2876L15.75 17.4001V22.6126Z" fill="#2A5F9E"/>
  <path d="M1.38757 15.75C1.50007 16.125 1.65007 16.4625 1.83757 16.8375L3.30007 15.75H1.38757Z" fill="#2A5F9E"/>
  <path d="M20.7001 15.75L22.1626 16.8375C22.3126 16.5 22.4626 16.125 22.6126 15.75H20.7001Z" fill="#2A5F9E"/>
  <path
    d="M8.81248 14.25H0.974976C1.08748 14.775 1.23748 15.2625 1.38748 15.75H3.29998L1.83748 16.8375C2.13748 17.475 2.47498 18.0375 2.88748 18.6L6.74998 15.75H8.24998V16.5L3.86248 19.725L4.38748 20.25L8.24998 17.4375V22.6125C8.73748 22.8 9.22498 22.9125 9.74998 23.025V14.25H8.81248Z"
    fill="white"/>
  <path
    d="M23.025 14.25H14.25V23.025C14.775 22.9125 15.2625 22.7625 15.75 22.6125V17.4375L19.6125 20.25C20.1375 19.7625 20.5875 19.2375 21.0375 18.675L17.025 15.75H19.575L21.8625 17.4375C21.975 17.25 22.0875 17.025 22.1625 16.8375L20.7 15.75H22.6125C22.7625 15.2625 22.9125 14.775 23.025 14.25Z"
    fill="white"/>
  <path
    d="M2.88757 18.5999C3.18757 19.0124 3.48757 19.3874 3.82507 19.7624L8.25007 16.5374V15.7874H6.75007L2.88757 18.5999Z"
    fill="#ED4C5C"/>
  <path
    d="M17.0625 15.75L21.075 18.675C21.225 18.4875 21.3375 18.3 21.4875 18.1125C21.525 18.075 21.525 18.0375 21.5625 18.0375C21.675 17.85 21.825 17.625 21.9375 17.4375L19.575 15.75H17.0625Z"
    fill="#ED4C5C"/>
  <path d="M15.75 1.38745V6.56245L19.6125 3.71245C18.525 2.69995 17.2125 1.91245 15.75 1.38745Z" fill="#2A5F9E"/>
  <path d="M8.25007 1.38745C6.78757 1.91245 5.47507 2.69995 4.38757 3.71245L8.25007 6.59995V1.38745Z" fill="#2A5F9E"/>
  <path d="M22.6126 8.2501C22.5001 7.8751 22.3501 7.5376 22.1626 7.1626L20.7001 8.2501H22.6126Z" fill="#2A5F9E"/>
  <path d="M3.30007 8.2501L1.83757 7.1626C1.68757 7.5376 1.53757 7.8751 1.38757 8.2501H3.30007Z" fill="#2A5F9E"/>
  <path
    d="M15.1875 9.74985H22.9875C22.875 9.22485 22.725 8.73735 22.575 8.24985H20.6625L22.125 7.16235C21.825 6.52485 21.4875 5.96235 21.075 5.39985L17.25 8.24985H15.75V7.49985L20.1375 4.27485L19.6125 3.74985L15.75 6.56235V1.38735C15.2625 1.19985 14.775 1.08735 14.25 0.974854V9.74985H15.1875Z"
    fill="white"/>
  <path
    d="M0.974976 9.74985H9.74998V0.974854C9.22498 1.08735 8.73748 1.23735 8.24998 1.38735V6.56235L4.38748 3.74985C3.86248 4.23735 3.41248 4.76235 2.96248 5.32485L6.97498 8.24985H4.42498L2.13748 6.56235C2.02498 6.74985 1.91248 6.97485 1.83748 7.16235L3.29998 8.24985H1.38748C1.23748 8.73735 1.08748 9.22485 0.974976 9.74985Z"
    fill="white"/>
  <path d="M21.1125 5.40005C20.8125 4.98755 20.5125 4.61255 20.175 4.23755L15.75 7.46255V8.21255H17.25L21.1125 5.40005Z"
        fill="#ED4C5C"/>
  <path
    d="M6.93748 8.24995L2.96248 5.32495C2.81248 5.51245 2.69998 5.69995 2.54998 5.88745C2.51248 5.92495 2.51248 5.96245 2.47498 5.96245C2.36248 6.14995 2.21248 6.37495 2.09998 6.56245L4.38748 8.24995H6.93748Z"
    fill="#ED4C5C"/>
  <path
    d="M23.025 9.75H14.25V0.975C13.5375 0.825 12.7875 0.75 12 0.75C11.2125 0.75 10.4625 0.825 9.75 0.975V9.75H0.975C0.825 10.4625 0.75 11.2125 0.75 12C0.75 12.7875 0.825 13.5375 0.975 14.25H9.75V23.025C10.4625 23.175 11.2125 23.25 12 23.25C12.7875 23.25 13.5375 23.175 14.25 23.025V14.25H23.025C23.175 13.5375 23.25 12.7875 23.25 12C23.25 11.2125 23.175 10.4625 23.025 9.75Z"
    fill="#ED4C5C"/>
</svg>
